# xmcd
#
# Track frame offsets:
#	150
#	15130
#	28946
#	44271
#	57268
#	73575
#	88620
#	102229
#	117685
#	132762
#	152709
#	166256
#	180720
#	198003
#	211540
#	227305
#	245501
#
# Disc length: 3507 seconds
#
# Revision: 2
# Processed by: cddbd v1.5.1PL0 Copyright (c) Steve Scherf et al.
# Submitted via: audiograbber 1.83.01
#
DISCID=d30db111
DTITLE=Various Artist - RPM RC72
DYEAR=2002
DGENRE=Country
TTITLE0=Toby Keith - Courtesy Of The Red, White And Blue (The Angry American)
TTITLE1=Brooks and Dunn - My Heart Is Lost To You
TTITLE2=Kenny Chesney - The Good Stuff
TTITLE3=Little Big Town - Don't Waste My Time
TTITLE4=Gary Allan - The One [Radio Edit]
TTITLE5=Brad Paisley - I'm Gonna Miss Her (The Fishin' Song) [Radio Version]
TTITLE6=Tracy Byrd - Ten Rounds With Jose Cuervo
TTITLE7=Trick Pony - Just What Did I Do [Single Mix]
TTITLE8=Pinmonkey - Barbed Wire And Roses
TTITLE9=Willie Nelson w Lee Ann Womack - Mendocino County Line
TTITLE10=Andy Griggs - Tonight I Wanna Be Your Man [Single Version]
TTITLE11=SHeDaisy - Get Over Yourself
TTITLE12=Anthony Smith - If That Ain't Country
TTITLE13=Hometown News - Minivan
TTITLE14=Darryl Worley - I Miss My Friend [Single Edit]
TTITLE15=Kellie Coffey - When You Lie Next To Me
TTITLE16=Trace Adkins - Help Me Understand
EXTD=
EXTT0=
EXTT1=
EXTT2=
EXTT3=
EXTT4=
EXTT5=
EXTT6=
EXTT7=
EXTT8=
EXTT9=
EXTT10=
EXTT11=
EXTT12=
EXTT13=
EXTT14=
EXTT15=
EXTT16=
PLAYORDER=
